<svg width="34" height="28" viewBox="0 0 34 28" fill="none" xmlns="http://www.w3.org/2000/svg">
<path d="M12.9949 3.15413C11.4469 5.00535 8.96345 7.97503 8.42087 11.5485C8.20971 12.9392 7.99853 15.3963 11.0019 15.9526C13.7485 16.4613 16.8677 21.052 13.1136 25.9198C11.2625 28.3199 4.11056 30.0921 0.912554 22.6746C-0.886316 18.5023 -1.24609 8.21063 11.7058 0.422327C13.0932 -0.412054 15.2513 -0.0411772 14.0521 1.8131C13.8328 2.15223 13.4552 2.60374 12.9949 3.15413Z" fill="#191720"/>
<path d="M32.1499 3.15412C30.6018 5.00534 28.1184 7.97503 27.5758 11.5485C27.3646 12.9392 27.1535 15.3963 30.1568 15.9526C32.9035 16.4613 36.0227 21.052 32.2685 25.9198C30.4174 28.3199 23.2655 30.0921 20.0675 22.6746C18.2686 18.5023 17.9088 8.21063 30.8607 0.422327C32.2481 -0.412054 34.4063 -0.0411772 33.207 1.8131C32.9877 2.15223 32.6101 2.60374 32.1499 3.15412Z" fill="#191720"/>
</svg>
